HIERARCHY
ROOT Hips
{
	OFFSET -2.439626 86.173584 3.652770
	CHANNELS 6 Xposition Yposition Zposition Zrotation Yrotation Xrotation 
	JOINT Spine
	{
		OFFSET 0.000000 8.814246 -2.080107
		CHANNELS 3 Zrotation Yrotation Xrotation
		JOINT Spine1
		{
			OFFSET -0.000000 8.844141 0.000000
			CHANNELS 3 Zrotation Yrotation Xrotation
			JOINT Spine2
			{
				OFFSET -0.000000 11.682268 -0.000000
				CHANNELS 3 Zrotation Yrotation Xrotation
				JOINT Spine3
				{
					OFFSET -0.000000 11.746700 0.000000
					CHANNELS 3 Zrotation Yrotation Xrotation
					JOINT Neck
					{
						OFFSET -0.000000 17.658264 -0.000000
						CHANNELS 3 Zrotation Yrotation Xrotation
						JOINT Neck1
						{
							OFFSET -0.000000 5.101515 0.000000
							CHANNELS 3 Zrotation Yrotation Xrotation
							JOINT Head
							{
								OFFSET -0.000000 5.101515 -0.000000
								CHANNELS 3 Zrotation Yrotation Xrotation
								JOINT HeadEnd
								{
									OFFSET -0.000000 11.655085 0.000000
									CHANNELS 3 Zrotation Yrotation Xrotation
									End Site
									{
										OFFSET 0.000000 0.000000 0.000000
									}
								}
							}
						}
					}
					JOINT RightShoulder
					{
						OFFSET -2.625389 11.175210 -0.000000
						CHANNELS 3 Zrotation Yrotation Xrotation
						JOINT RightArm
						{
							OFFSET 0.000000 10.434715 -0.000000
							CHANNELS 3 Zrotation Yrotation Xrotation
							JOINT RightForeArm
							{
								OFFSET -0.000000 29.628420 -0.000000
								CHANNELS 3 Zrotation Yrotation Xrotation
								JOINT RightHand
								{
									OFFSET -0.000000 22.857611 0.000000
									CHANNELS 3 Zrotation Yrotation Xrotation
									JOINT RightHandThumb1
									{
										OFFSET -2.867323 3.959563 2.944291
										CHANNELS 3 Zrotation Yrotation Xrotation
										JOINT RightHandThumb2
										{
											OFFSET -0.000000 3.350399 0.000000
											CHANNELS 3 Zrotation Yrotation Xrotation
											JOINT RightHandThumb3
											{
												OFFSET 0.000000 3.756509 0.000000
												CHANNELS 3 Zrotation Yrotation Xrotation
												JOINT RightHandThumb4
												{
													OFFSET -0.000000 3.147345 -0.000000
													CHANNELS 3 Zrotation Yrotation Xrotation
													End Site
													{
														OFFSET 0.000000 0.000000 0.000000
													}
												}
											}
										}
									}
									JOINT RightHandIndex1
									{
										OFFSET -0.086752 10.030893 2.345280
										CHANNELS 3 Zrotation Yrotation Xrotation
										JOINT RightHandIndex2
										{
											OFFSET -0.000000 4.061090 -0.000000
											CHANNELS 3 Zrotation Yrotation Xrotation
											JOINT RightHandIndex3
											{
												OFFSET -0.000000 3.248873 -0.000000
												CHANNELS 3 Zrotation Yrotation Xrotation
												JOINT RightHandIndex4
												{
													OFFSET -0.000000 2.639709 -0.000000
													CHANNELS 3 Zrotation Yrotation Xrotation
													End Site
													{
														OFFSET 0.000000 0.000000 0.000000
													}
												}
											}
										}
									}
									JOINT RightHandMiddle1
									{
										OFFSET 0.104102 9.502952 0.006768
										CHANNELS 3 Zrotation Yrotation Xrotation
										JOINT RightHandMiddle2
										{
											OFFSET -0.000000 4.568727 -0.000000
											CHANNELS 3 Zrotation Yrotation Xrotation
											JOINT RightHandMiddle3
											{
												OFFSET -0.000000 3.654981 0.000000
												CHANNELS 3 Zrotation Yrotation Xrotation
												JOINT RightHandMiddle4
												{
													OFFSET 0.000000 2.741236 0.000000
													CHANNELS 3 Zrotation Yrotation Xrotation
													End Site
													{
														OFFSET 0.000000 0.000000 0.000000
													}
												}
											}
										}
									}
									JOINT RightHandRing1
									{
										OFFSET 0.086752 8.921708 -2.267442
										CHANNELS 3 Zrotation Yrotation Xrotation
										JOINT RightHandRing2
										{
											OFFSET -0.000000 4.061090 -0.000000
											CHANNELS 3 Zrotation Yrotation Xrotation
											JOINT RightHandRing3
											{
												OFFSET 0.000000 3.654981 0.000000
												CHANNELS 3 Zrotation Yrotation Xrotation
												JOINT RightHandRing4
												{
													OFFSET 0.000000 2.741236 0.000000
													CHANNELS 3 Zrotation Yrotation Xrotation
													End Site
													{
														OFFSET 0.000000 0.000000 0.000000
													}
												}
											}
										}
									}
									JOINT RightHandPinky1
									{
										OFFSET -0.173504 7.976997 -4.467199
										CHANNELS 3 Zrotation Yrotation Xrotation
										JOINT RightHandPinky2
										{
											OFFSET -0.000000 3.350399 -0.000000
											CHANNELS 3 Zrotation Yrotation Xrotation
											JOINT RightHandPinky3
											{
												OFFSET -0.000000 2.842763 -0.000000
												CHANNELS 3 Zrotation Yrotation Xrotation
												JOINT RightHandPinky4
												{
													OFFSET 0.000000 2.639709 -0.000000
													CHANNELS 3 Zrotation Yrotation Xrotation
													End Site
													{
														OFFSET 0.000000 0.000000 0.000000
													}
												}
											}
										}
									}
									JOINT RightForeArmEnd
									{
										OFFSET 0.000000 0.000000 0.000000
										CHANNELS 3 Zrotation Yrotation Xrotation
										End Site
										{
											OFFSET 0.000000 0.000000 0.000000
										}
									}
								}
								JOINT RightArmEnd
								{
									OFFSET 0.000000 0.000000 0.000000
									CHANNELS 3 Zrotation Yrotation Xrotation
									End Site
									{
										OFFSET 0.000000 0.000000 0.000000
									}
								}
							}
						}
					}
					JOINT LeftShoulder
					{
						OFFSET 2.625389 11.175210 0.000000
						CHANNELS 3 Zrotation Yrotation Xrotation
						JOINT LeftArm
						{
							OFFSET 0.000000 10.813635 0.000000
							CHANNELS 3 Zrotation Yrotation Xrotation
							JOINT LeftForeArm
							{
								OFFSET 0.000000 28.724781 -0.000000
								CHANNELS 3 Zrotation Yrotation Xrotation
								JOINT LeftHand
								{
									OFFSET 0.644384 25.716167 -0.328871
									CHANNELS 3 Zrotation Yrotation Xrotation
									JOINT LeftHandThumb1
									{
										OFFSET 2.867323 3.959563 2.944291
										CHANNELS 3 Zrotation Yrotation Xrotation
										JOINT LeftHandThumb2
										{
											OFFSET -0.000000 3.350399 0.000000
											CHANNELS 3 Zrotation Yrotation Xrotation
											JOINT LeftHandThumb3
											{
												OFFSET -0.000000 3.756509 0.000000
												CHANNELS 3 Zrotation Yrotation Xrotation
												JOINT LeftHandThumb4
												{
													OFFSET -0.000000 3.100000 0.000000
													CHANNELS 3 Zrotation Yrotation Xrotation
													End Site
													{
														OFFSET 0.000000 0.000000 0.000000
													}
												}
											}
										}
									}
									JOINT LeftHandIndex1
									{
										OFFSET 0.086752 10.030893 2.345280
										CHANNELS 3 Zrotation Yrotation Xrotation
										JOINT LeftHandIndex2
										{
											OFFSET -0.000000 4.061090 0.000000
											CHANNELS 3 Zrotation Yrotation Xrotation
											JOINT LeftHandIndex3
											{
												OFFSET -0.000000 3.248873 0.000000
												CHANNELS 3 Zrotation Yrotation Xrotation
												JOINT LeftHandIndex4
												{
													OFFSET -0.000000 2.639709 0.000000
													CHANNELS 3 Zrotation Yrotation Xrotation
													End Site
													{
														OFFSET 0.000000 0.000000 0.000000
													}
												}
											}
										}
									}
									JOINT LeftHandMiddle1
									{
										OFFSET -0.104102 9.502952 0.006768
										CHANNELS 3 Zrotation Yrotation Xrotation
										JOINT LeftHandMiddle2
										{
											OFFSET -0.000000 4.568727 0.000000
											CHANNELS 3 Zrotation Yrotation Xrotation
											JOINT LeftHandMiddle3
											{
												OFFSET 0.000000 3.654981 0.000000
												CHANNELS 3 Zrotation Yrotation Xrotation
												JOINT LeftHandMiddle4
												{
													OFFSET -0.000000 2.741236 0.000000
													CHANNELS 3 Zrotation Yrotation Xrotation
													End Site
													{
														OFFSET 0.000000 0.000000 0.000000
													}
												}
											}
										}
									}
									JOINT LeftHandRing1
									{
										OFFSET -0.086752 8.921708 -2.267442
										CHANNELS 3 Zrotation Yrotation Xrotation
										JOINT LeftHandRing2
										{
											OFFSET 0.000000 4.061090 -0.000000
											CHANNELS 3 Zrotation Yrotation Xrotation
											JOINT LeftHandRing3
											{
												OFFSET 0.000000 3.654981 -0.000000
												CHANNELS 3 Zrotation Yrotation Xrotation
												JOINT LeftHandRing4
												{
													OFFSET 0.000000 2.741236 -0.000000
													CHANNELS 3 Zrotation Yrotation Xrotation
													End Site
													{
														OFFSET 0.000000 0.000000 0.000000
													}
												}
											}
										}
									}
									JOINT LeftHandPinky1
									{
										OFFSET 0.173504 7.976997 -4.467199
										CHANNELS 3 Zrotation Yrotation Xrotation
										JOINT LeftHandPinky2
										{
											OFFSET -0.000000 3.350399 0.000000
											CHANNELS 3 Zrotation Yrotation Xrotation
											JOINT LeftHandPinky3
											{
												OFFSET 0.000000 2.842763 -0.000000
												CHANNELS 3 Zrotation Yrotation Xrotation
												JOINT LeftHandPinky4
												{
													OFFSET -0.000000 2.639709 0.000000
													CHANNELS 3 Zrotation Yrotation Xrotation
													End Site
													{
														OFFSET 0.000000 0.000000 0.000000
													}
												}
											}
										}
									}
									JOINT LeftForeArmEnd
									{
										OFFSET 0.000000 0.000000 0.000000
										CHANNELS 3 Zrotation Yrotation Xrotation
										End Site
										{
											OFFSET 0.000000 0.000000 0.000000
										}
									}
								}
								JOINT LeftArmEnd
								{
									OFFSET 0.000000 0.000000 0.000000
									CHANNELS 3 Zrotation Yrotation Xrotation
									End Site
									{
										OFFSET 0.000000 0.000000 0.000000
									}
								}
							}
						}
					}
				}
			}
		}
	}
	JOINT RightUpLeg
	{
		OFFSET -11.289943 0.000000 0.000000
		CHANNELS 3 Zrotation Yrotation Xrotation
		JOINT RightLeg
		{
			OFFSET -0.000000 -38.200325 0.000000
			CHANNELS 3 Zrotation Yrotation Xrotation
			JOINT RightFoot
			{
				OFFSET -0.000000 -39.900856 -0.000000
				CHANNELS 3 Zrotation Yrotation Xrotation
				JOINT RightToeBase
				{
					OFFSET 0.000000 -0.000000 15.261641
					CHANNELS 3 Zrotation Yrotation Xrotation
					JOINT RightToeBaseEnd
					{
						OFFSET -0.000000 -0.000000 7.370709
						CHANNELS 3 Zrotation Yrotation Xrotation
						End Site
						{
							OFFSET 0.000000 0.000000 0.000000
						}
					}
				}
				JOINT RightLegEnd
				{
					OFFSET 0.000000 0.000000 0.000000
					CHANNELS 3 Zrotation Yrotation Xrotation
					End Site
					{
						OFFSET 0.000000 0.000000 0.000000
					}
				}
			}
			JOINT RightUpLegEnd
			{
				OFFSET 0.000000 0.000000 0.000000
				CHANNELS 3 Zrotation Yrotation Xrotation
				End Site
				{
					OFFSET 0.000000 0.000000 0.000000
				}
			}
		}
	}
	JOINT LeftUpLeg
	{
		OFFSET 11.315661 0.000000 -0.000000
		CHANNELS 3 Zrotation Yrotation Xrotation
		JOINT LeftLeg
		{
			OFFSET 0.000000 -38.200325 0.000000
			CHANNELS 3 Zrotation Yrotation Xrotation
			JOINT LeftFoot
			{
				OFFSET -0.000000 -39.900856 -0.000000
				CHANNELS 3 Zrotation Yrotation Xrotation
				JOINT LeftToeBase
				{
					OFFSET 0.000000 0.000000 15.261641
					CHANNELS 3 Zrotation Yrotation Xrotation
					JOINT LeftToeBaseEnd
					{
						OFFSET -0.000000 0.000000 7.539996
						CHANNELS 3 Zrotation Yrotation Xrotation
						End Site
						{
							OFFSET 0.000000 0.000000 0.000000
						}
					}
				}
				JOINT LeftLegEnd
				{
					OFFSET 0.000000 0.000000 0.000000
					CHANNELS 3 Zrotation Yrotation Xrotation
					End Site
					{
						OFFSET 0.000000 0.000000 0.000000
					}
				}
			}
			JOINT LeftUpLegEnd
			{
				OFFSET 0.000000 0.000000 0.000000
				CHANNELS 3 Zrotation Yrotation Xrotation
				End Site
				{
					OFFSET 0.000000 0.000000 0.000000
				}
			}
		}
	}
}
MOTION
Frames: 5
Frame Time: 0.016667
-2.012697 86.123001 9.190572 -4.091711 -20.542246 -15.412371 2.060429 -0.143672 8.422036 -4.492087 1.463753 -3.191765 5.964448 -1.667142 19.641008 0.728925 0.715246 1.053680 -10.360528 -0.101305 13.633453 3.082365 0.110736 -5.381280 -1.334342 -4.217858 -25.501778 0.000000 0.000000 0.000000 95.260620 -1.278480 5.674906 53.350929 -38.337925 10.536818 0.793883 8.304289 37.033646 -1.967131 22.141474 -11.100443 9.505555 -1.740226 40.384495 0.000014 0.000006 -23.386625 -0.000008 0.000060 -16.245199 0.000014 -0.000002 -0.000018 12.488031 16.163136 -13.519568 10.429472 -0.825319 -2.313447 10.379269 0.114693 -2.234637 -0.000010 -0.000013 -0.000028 14.794626 6.617935 -14.068367 10.904655 -0.905629 -1.002066 10.710378 0.064967 -0.867109 0.000002 0.000022 -0.000002 19.803276 -8.523915 -12.793353 12.270899 1.837568 1.487202 12.259588 -0.090376 1.164360 -0.000020 -0.000933 0.000014 23.874161 -24.486021 -13.331888 12.003692 3.613779 4.303840 11.857899 -0.249912 3.658255 -0.000956 -0.000002 0.000010 0.000000 0.000000 0.000000 0.000000 0.000000 0.000000 -98.242050 1.189215 5.739749 -58.437260 38.221317 0.552047 -3.799753 -16.801380 45.894703 -4.424900 -15.800501 -15.812489 -9.644535 1.754165 40.341667 -0.000011 0.000037 -23.368061 0.000040 -0.000027 -16.342609 -0.000801 -0.000024 -0.000515 -14.226658 15.904576 -9.752600 -7.372505 -0.836901 2.338113 -7.477709 0.103818 2.241657 0.000018 -0.000197 0.000000 -13.575606 6.590064 -11.411861 -7.985661 -0.910173 1.003930 -7.995644 0.058921 0.871034 0.000500 -0.000064 -0.000202 -13.006015 -8.423514 -12.632521 -9.298239 1.873129 -1.419214 -9.033093 -0.060764 -1.130926 0.001638 -0.000001 -0.000003 -9.833294 -24.091448 -17.090984 -9.539350 3.582765 -4.048472 -9.383795 -0.209662 -3.530128 -0.001263 -0.000005 -0.000045 0.000000 0.000000 0.000000 0.000000 0.000000 0.000000 2.861911 -2.178676 16.687399 -0.115424 -0.443922 12.671796 -5.668234 -2.400276 13.497219 0.133356 -0.243021 -26.210690 0.000000 0.000000 0.000000 0.000000 0.000000 0.000000 0.000000 0.000000 0.000000 13.073019 4.063223 19.216167 0.353189 1.146047 17.915983 -6.542689 16.423512 9.188135 1.222765 0.769220 -25.830727 0.000000 0.000000 0.000000 0.000000 0.000000 0.000000 0.000000 0.000000 0.000000 
-2.035875 86.117294 9.177109 -4.126809 -20.709904 -15.399576 2.078529 -0.147620 8.416546 -4.508298 1.464193 -3.199091 6.002770 -1.709361 19.647827 0.728650 0.707680 1.067030 -10.364881 -0.094899 13.631405 3.080980 0.120677 -5.374210 -1.341715 -4.218404 -25.497173 0.000000 0.000000 0.000000 95.258698 -1.280181 5.674485 53.289986 -38.400032 10.558070 0.790382 8.235658 37.017555 -1.995194 21.989939 -11.074166 9.502331 -1.740153 40.386086 0.000014 0.000006 -23.376291 -0.000008 0.000060 -16.236990 0.000014 -0.000002 -0.000019 12.484079 16.160999 -13.497547 10.414480 -0.825693 -2.313827 10.368309 0.114113 -2.235696 -0.000010 -0.000013 -0.000028 14.782722 6.617567 -14.053373 10.890263 -0.905801 -1.002304 10.696433 0.064799 -0.867377 0.000002 0.000024 -0.000002 19.759319 -8.524632 -12.792896 12.247205 1.838275 1.487033 12.236086 -0.089941 1.164222 -0.000021 -0.000914 0.000014 23.806187 -24.492731 -13.334198 11.973313 3.615685 4.300091 11.829375 -0.248364 3.656235 -0.000962 -0.000002 0.000011 0.000000 0.000000 0.000000 0.000000 0.000000 0.000000 -98.237350 1.190341 5.747793 -58.404530 38.285191 0.582687 -3.806181 -16.768860 45.792091 -4.459156 -15.781182 -15.808716 -9.648687 1.753853 40.339657 -0.000012 0.000037 -23.380920 0.000040 -0.000027 -16.350508 -0.000799 -0.000024 -0.000554 -14.263890 15.912457 -9.719635 -7.413179 -0.835514 2.347231 -7.520591 0.105126 2.250216 0.000018 -0.000184 0.000000 -13.610201 6.592494 -11.386471 -8.023959 -0.909714 1.007301 -8.030888 0.059355 0.873774 0.000467 -0.000064 -0.000200 -13.026952 -8.425208 -12.610629 -9.321681 1.872634 -1.422771 -9.056067 -0.061327 -1.133824 0.001643 -0.000001 -0.000003 -9.843032 -24.091364 -17.066553 -9.543836 3.581396 -4.056990 -9.389156 -0.210671 -3.537236 -0.001288 -0.000005 -0.000045 0.000000 0.000000 0.000000 0.000000 0.000000 0.000000 2.924533 -2.164210 16.675673 -0.114795 -0.441673 12.665241 -5.706071 -2.359367 13.500816 0.134287 -0.243389 -26.195927 0.000000 0.000000 0.000000 0.000000 0.000000 0.000000 0.000000 0.000000 0.000000 13.134011 4.123254 19.251892 0.353620 1.146780 17.906200 -6.574751 16.453796 9.152184 1.224986 0.771560 -25.811110 0.000000 0.000000 0.000000 0.000000 0.000000 0.000000 0.000000 0.000000 0.000000 
-2.060407 86.111259 9.164135 -4.161190 -20.876099 -15.386663 2.096580 -0.151398 8.410454 -4.523431 1.464048 -3.203568 6.039766 -1.750142 19.653063 0.730146 0.699960 1.081705 -10.367352 -0.086707 13.623072 3.080764 0.132852 -5.370809 -1.349261 -4.219553 -25.491562 0.000000 0.000000 0.000000 95.255348 -1.281510 5.675364 53.240116 -38.453316 10.569777 0.787266 8.170088 36.999134 -2.035149 21.832346 -11.049184 9.497673 -1.739674 40.388710 0.000014 0.000006 -23.361414 -0.000008 0.000060 -16.226149 0.000014 -0.000001 -0.000019 12.468221 16.161198 -13.476625 10.401849 -0.825628 -2.315187 10.359377 0.113969 -2.237741 -0.000010 -0.000013 -0.000028 14.760348 6.618157 -14.038035 10.878263 -0.905815 -1.002973 10.684924 0.064777 -0.868016 0.000002 0.000026 -0.000003 19.706936 -8.526534 -12.790081 12.224720 1.838698 1.487359 12.214008 -0.089733 1.164456 -0.000021 -0.000896 0.000014 23.731617 -24.501650 -13.332640 11.943109 3.616818 4.297636 11.801261 -0.247584 3.655320 -0.000967 -0.000002 0.000012 0.000000 0.000000 0.000000 0.000000 0.000000 0.000000 -98.229881 1.190489 5.757757 -58.375404 38.350544 0.607542 -3.811409 -16.729515 45.691059 -4.489666 -15.755238 -15.804533 -9.652324 1.753383 40.338017 -0.000012 0.000037 -23.392086 0.000041 -0.000027 -16.357325 -0.000799 -0.000024 -0.000591 -14.291174 15.921978 -9.686047 -7.453299 -0.833857 2.356959 -7.562807 0.106705 2.259322 0.000018 -0.000169 0.000000 -13.636692 6.595469 -11.360662 -8.061727 -0.909158 1.010945 -8.065812 0.059865 0.876741 0.000434 -0.000064 -0.000197 -13.042744 -8.427348 -12.588719 -9.344102 1.871977 -1.426699 -9.078020 -0.062017 -1.136965 0.001649 -0.000001 -0.000003 -9.849294 -24.092201 -17.042316 -9.547360 3.579591 -4.066333 -9.393689 -0.212057 -3.545071 -0.001311 -0.000005 -0.000045 0.000000 0.000000 0.000000 0.000000 0.000000 0.000000 2.987773 -2.151148 16.663542 -0.114178 -0.439317 12.659451 -5.745684 -2.320154 13.505716 0.135160 -0.243942 -26.182329 0.000000 0.000000 0.000000 0.000000 0.000000 0.000000 0.000000 0.000000 0.000000 13.194866 4.178767 19.283516 0.354190 1.147663 17.904778 -6.609071 16.482088 9.114547 1.226729 0.773676 -25.792305 0.000000 0.000000 0.000000 0.000000 0.000000 0.000000 0.000000 0.000000 0.000000 
-2.086286 86.104958 9.151524 -4.194804 -21.039488 -15.373828 2.114677 -0.155097 8.403843 -4.537938 1.463500 -3.205108 6.076157 -1.789255 19.656588 0.733089 0.692386 1.097688 -10.367966 -0.077462 13.609298 3.081647 0.146797 -5.370557 -1.356760 -4.221336 -25.485527 0.000000 0.000000 0.000000 95.250618 -1.282726 5.677794 53.199768 -38.497997 10.573735 0.784305 8.109070 36.977489 -2.084279 21.676168 -11.023758 9.491955 -1.738874 40.392120 0.000015 0.000006 -23.343067 -0.000008 0.000060 -16.213478 0.000014 -0.000001 -0.000019 12.442809 16.163393 -13.456851 10.391563 -0.825179 -2.317213 10.352379 0.114204 -2.240446 -0.000009 -0.000013 -0.000028 14.729720 6.619536 -14.022476 10.868611 -0.905695 -1.003951 10.675730 0.064881 -0.868913 0.000002 0.000029 -0.000003 19.648928 -8.529387 -12.784893 12.203702 1.838860 1.488069 12.193638 -0.089732 1.164973 -0.000021 -0.000880 0.000014 23.654230 -24.512009 -13.327516 11.913754 3.617217 4.296325 11.774127 -0.247519 3.655364 -0.000970 -0.000002 0.000012 0.000000 0.000000 0.000000 0.000000 0.000000 0.000000 -98.220154 1.190129 5.768719 -58.348911 38.417976 0.628154 -3.815085 -16.684490 45.594658 -4.515568 -15.722338 -15.797909 -9.655447 1.752798 40.336685 -0.000012 0.000037 -23.401609 0.000042 -0.000027 -16.363174 -0.000801 -0.000024 -0.000628 -14.310920 15.932738 -9.653529 -7.492702 -0.832019 2.366851 -7.604146 0.108473 2.268559 0.000019 -0.000154 0.000000 -13.656951 6.598838 -11.335784 -8.098709 -0.908537 1.014691 -8.100193 0.060422 0.879791 0.000401 -0.000064 -0.000194 -13.055053 -8.429757 -12.568064 -9.365395 1.871209 -1.430815 -9.098796 -0.062796 -1.140215 0.001656 -0.000001 -0.000003 -9.853794 -24.093655 -17.019648 -9.550205 3.577455 -4.076072 -9.397618 -0.213727 -3.553288 -0.001331 -0.000005 -0.000045 0.000000 0.000000 0.000000 0.000000 0.000000 0.000000 3.051503 -2.139085 16.651329 -0.113571 -0.436849 12.654331 -5.786694 -2.282694 13.512114 0.136067 -0.244646 -26.170361 0.000000 0.000000 0.000000 0.000000 0.000000 0.000000 0.000000 0.000000 0.000000 13.255504 4.228955 19.310600 0.354903 1.148695 17.912031 -6.645520 16.508226 9.076180 1.228009 0.775592 -25.774811 0.000000 0.000000 0.000000 0.000000 0.000000 0.000000 0.000000 0.000000 0.000000 
-2.113496 86.098457 9.139001 -4.227478 -21.199043 -15.361055 2.132623 -0.158719 8.396775 -4.551854 1.462635 -3.203964 6.112309 -1.826601 19.658722 0.737421 0.684939 1.114785 -10.366918 -0.068072 13.590955 3.083452 0.161545 -5.373099 -1.363970 -4.223730 -25.479593 0.000000 0.000000 0.000000 95.245239 -1.283906 5.681894 53.167828 -38.533398 10.570799 0.781448 8.055530 36.952644 -2.141067 21.527788 -10.997309 9.485344 -1.737808 40.396194 0.000015 0.000006 -23.321783 -0.000008 0.000060 -16.199358 0.000014 -0.000001 -0.000019 12.409619 16.167118 -13.438136 10.383419 -0.824367 -2.319773 10.347010 0.114788 -2.243649 -0.000009 -0.000013 -0.000028 14.692346 6.621547 -14.006598 10.861032 -0.905450 -1.005173 10.668542 0.065100 -0.870007 0.000001 0.000032 -0.000003 19.586870 -8.533004 -12.777171 12.184043 1.838772 1.489092 12.174845 -0.089918 1.165719 -0.000022 -0.000866 0.000014 23.575720 -24.523357 -13.318751 11.885439 3.616907 4.296028 11.748125 -0.248119 3.656247 -0.000972 -0.000002 0.000013 0.000000 0.000000 0.000000 0.000000 0.000000 0.000000 -98.208511 1.189475 5.780781 -58.325111 38.486160 0.644904 -3.817413 -16.636280 45.504578 -4.536726 -15.684429 -15.787758 -9.657947 1.752123 40.335690 -0.000012 0.000037 -23.409334 0.000043 -0.000027 -16.367998 -0.000806 -0.000023 -0.000664 -14.323640 15.944309 -9.622820 -7.530565 -0.830067 2.376561 -7.643770 0.110362 2.277608 0.000019 -0.000137 0.000000 -13.671316 6.602462 -11.312359 -8.134128 -0.907872 1.018405 -8.133345 0.061002 0.882813 0.000368 -0.000064 -0.000191 -13.064391 -8.432353 -12.549099 -9.385327 1.870357 -1.434987 -9.118156 -0.063634 -1.143468 0.001663 -0.000001 -0.000003 -9.857405 -24.095678 -16.999020 -9.552691 3.575068 -4.085892 -9.401291 -0.215607 -3.561633 -0.001349 -0.000006 -0.000045 0.000000 0.000000 0.000000 0.000000 0.000000 0.000000 3.115474 -2.128170 16.639359 -0.112983 -0.434321 12.649798 -5.828730 -2.247262 13.519537 0.137027 -0.245425 -26.160267 0.000000 0.000000 0.000000 0.000000 0.000000 0.000000 0.000000 0.000000 0.000000 13.315616 4.273257 19.332987 0.355764 1.149953 17.927399 -6.684047 16.531628 9.037951 1.228865 0.777275 -25.758984 0.000000 0.000000 0.000000 0.000000 0.000000 0.000000 0.000000 0.000000 0.000000 
